<?xml version="1.0" encoding="utf-8"?>
<!-- Generator: Adobe Illustrator 27.3.1, SVG Export Plug-In . SVG Version: 6.00 Build 0)  -->
<svg version="1.1" id="svg10121" xmlns="http://www.w3.org/2000/svg" xmlns:xlink="http://www.w3.org/1999/xlink" x="0px" y="0px"
	 viewBox="0 0 1946.9 967.6" style="enable-background:new 0 0 1946.9 967.6;" xml:space="preserve">
<style type="text/css">
	.st0{fill:#ED1C24;}
	.st1{fill:#231F20;}
	.st2{fill:#939598;}
	.st3{fill:#FFFFFF;}
</style>
<g>
	<g>
		<g>
			<rect x="935.5" y="210.8" class="st0" width="75.8" height="227.5"/>
			<rect x="859.7" y="286.6" class="st0" width="227.5" height="75.8"/>
		</g>
		<g>
			<path class="st1" d="M276.9,591.6c-21,0-34.5-18.4-34.5-35.7c0-18.5,13.6-35,34.5-35c21,0,34.5,16.4,34.5,34.9
				C311.5,573.3,298.1,591.6,276.9,591.6z M296.3,556c0-9.8-7.6-20.8-19.5-20.8c-12.1,0-19.2,10-19.2,20.8c0,10,7,21.7,19.5,21.7
				C288.7,577.8,296.3,566.1,296.3,556z M249.4,514c3.9,0,7,3.2,7,7c0,3.9-3.2,7-7,7c-3.9,0-7-3.2-7-7
				C242.4,517.1,245.6,514,249.4,514z M297.4,521c0-3.9,3.2-7,7-7c3.9,0,7,3.2,7,7c0,3.9-3.2,7-7,7
				C300.6,528.1,297.4,524.9,297.4,521z"/>
			<g>
				<path class="st1" d="M338.6,591.7c-10.7,0-17.6-3.8-23.7-9.8l9.7-11.6c3.5,4,9,7.7,13.6,7.7c4.5,0,8-2.2,8-7.1
					c0-4.8-4.7-7.4-9-9.4c-9.3-4.5-18.4-9.1-18.4-20.7c0-12.3,10.3-19.9,21.9-19.9c8.8,0,13.9,3.2,19.7,9.2l-9.5,10.7
					c-2.7-3.6-5.5-6.5-10.2-6.5c-3.5,0-6.4,2.4-6.4,6c0,10.6,27.5,7.7,27.5,28.9C361.6,583.5,351,591.7,338.6,591.7z"/>
				<path class="st1" d="M396.2,535.1v55.2h-14.9v-55h-14.6V522h44v13.1H396.2z"/>
				<path class="st1" d="M458.8,535.2h-24v13.6h18.9v13.3h-18.9v14.6h23.9v13.7h-38.8V522h38.9V535.2z"/>
				<path class="st1" d="M502,590.4l-14.8-27.1h-2.6v27.1h-14.5V522h22.7c13.3,0,23.1,6.7,23.1,20.3c0,8.9-4.8,16.3-13.5,19.8
					l16,28.3H502z M489.6,533.9h-5v18h6.6c5.6,0,10.1-3.2,10.1-9.1C501.4,535.8,495.7,533.9,489.6,533.9z"/>
				<path class="st1" d="M559.6,590.4l-14.8-27.1h-2.6v27.1h-14.5V522h22.7c13.4,0,23.1,6.7,23.1,20.3c0,8.9-4.8,16.3-13.5,19.8
					l16,28.3H559.6z M547.2,533.9h-5v18h6.6c5.6,0,10.1-3.2,10.1-9.1C558.9,535.8,553.2,533.9,547.2,533.9z"/>
				<path class="st1" d="M624.2,535.2h-24v13.6h18.9v13.3h-18.9v14.6h23.9v13.7h-38.8V522h38.9V535.2z"/>
				<path class="st1" d="M635.5,590.4V522h15v68.4H635.5z"/>
				<path class="st1" d="M694.2,591.5c-19.9,0-33.4-14.1-33.4-35.1c0-24.8,16.3-35.6,34.6-35.6c7,0,13.1,1.3,18.2,4.6v16.4
					c-5.4-5.1-12-7.5-17.7-7.5c-12.2,0-20,9-20,22.1c0,13.3,7.5,21.5,20.2,21.5c6.5,0,12-2.2,17.5-6.8v15.2
					C708,589.7,701.2,591.5,694.2,591.5z"/>
				<path class="st1" d="M764.8,590.4v-28.1h-25.3v28.1h-15V522h15v26.9h25.3V522h15v68.4H764.8z"/>
				<path class="st1" d="M793.6,590.4V522h15v68.4H793.6z"/>
				<path class="st1" d="M840.6,591.7c-10.7,0-17.6-3.8-23.8-9.8l9.7-11.6c3.5,4,9,7.7,13.5,7.7c4.5,0,8-2.2,8-7.1
					c0-4.8-4.7-7.4-9-9.4c-9.3-4.5-18.4-9.1-18.4-20.7c0-12.3,10.3-19.9,21.9-19.9c8.8,0,13.9,3.2,19.7,9.2l-9.5,10.7
					c-2.7-3.6-5.5-6.5-10.2-6.5c-3.5,0-6.4,2.4-6.4,6c0,10.6,27.5,7.7,27.5,28.9C863.7,583.5,853.1,591.7,840.6,591.7z"/>
				<path class="st1" d="M903.4,591.5c-19.9,0-33.4-14.1-33.4-35.1c0-24.8,16.3-35.6,34.5-35.6c7,0,13.1,1.3,18.2,4.6v16.4
					c-5.4-5.1-12-7.5-17.7-7.5c-12.2,0-20,9-20,22.1c0,13.3,7.5,21.5,20.2,21.5c6.5,0,12-2.2,17.5-6.8v15.2
					C917.3,589.7,910.4,591.5,903.4,591.5z"/>
				<path class="st1" d="M974,590.4v-28.1h-25.3v28.1h-15V522h15v26.9H974V522h15v68.4H974z"/>
				<path class="st1" d="M1041.8,535.2h-24v13.6h18.9v13.3h-18.9v14.6h23.9v13.7h-38.8V522h38.9V535.2z"/>
				<path class="st1" d="M1071.2,591.7c-10.7,0-17.6-3.8-23.8-9.8l9.7-11.6c3.5,4,9,7.7,13.6,7.7c4.5,0,8-2.2,8-7.1
					c0-4.8-4.7-7.4-9-9.4c-9.3-4.5-18.4-9.1-18.4-20.7c0-12.3,10.3-19.9,21.9-19.9c8.8,0,13.9,3.2,19.7,9.2l-9.5,10.7
					c-2.6-3.6-5.5-6.5-10.2-6.5c-3.5,0-6.4,2.4-6.4,6c0,10.6,27.5,7.7,27.5,28.9C1094.3,583.5,1083.7,591.7,1071.2,591.7z"/>
				<path class="st1" d="M1156.6,590.4l-14.8-27.1h-2.7v27.1h-14.5V522h22.7c13.3,0,23.1,6.7,23.1,20.3c0,8.9-4.8,16.3-13.5,19.8
					l16,28.3H1156.6z M1144.3,533.9h-5v18h6.6c5.6,0,10.1-3.2,10.1-9.1C1156,535.8,1150.3,533.9,1144.3,533.9z"/>
				<path class="st1" d="M1212.4,591.5c-21.7,0-34.5-16.2-34.5-35.2c0-19.3,13.9-35.5,34.8-35.5c21,0,34.2,16.4,34.2,34.9
					C1246.9,573.1,1233.6,591.5,1212.4,591.5z M1231.6,555.9c0-9.8-7.2-21-19.2-21c-12.1,0-19.3,10.7-19.3,21.5c0,10,6.8,21,19.3,21
					C1224.1,577.4,1231.6,566,1231.6,555.9z"/>
				<path class="st1" d="M1280.7,535.1v55.2h-14.9v-55h-14.6V522h44v13.1H1280.7z"/>
				<path class="st1" d="M1343.2,535.2h-23.9v13.6h18.8v13.3h-18.8v14.6h23.8v13.7h-38.8V522h38.9V535.2z"/>
				<path class="st1" d="M1372.7,591.7c-10.7,0-17.6-3.8-23.8-9.8l9.7-11.6c3.5,4,9,7.7,13.6,7.7c4.5,0,7.9-2.2,7.9-7.1
					c0-4.8-4.7-7.4-9-9.4c-9.3-4.5-18.4-9.1-18.4-20.7c0-12.3,10.3-19.9,21.9-19.9c8.8,0,13.9,3.2,19.7,9.2l-9.5,10.7
					c-2.6-3.6-5.5-6.5-10.2-6.5c-3.5,0-6.4,2.4-6.4,6c0,10.6,27.5,7.7,27.5,28.9C1395.7,583.5,1385.1,591.7,1372.7,591.7z"/>
				<path class="st1" d="M1441.2,590.4h-15V522h15v25.9l20-25.9h18l-24.2,30l25,38.4h-18.1l-16.5-26.3l-4.2,5.2V590.4z"/>
				<path class="st1" d="M1518.1,590.4l-14.8-27.1h-2.6v27.1h-14.5V522h22.7c13.3,0,23.1,6.7,23.1,20.3c0,8.9-4.8,16.3-13.5,19.8
					l16,28.3H1518.1z M1505.8,533.9h-5v18h6.6c5.6,0,10.1-3.2,10.1-9.1C1517.5,535.8,1511.8,533.9,1505.8,533.9z"/>
				<path class="st1" d="M1582.7,535.2h-24v13.6h18.9v13.3h-18.9v14.6h23.9v13.7h-38.8V522h38.9V535.2z"/>
				<path class="st1" d="M1619.4,591.5c-16.6,0-26.1-10.4-26.1-26.8V522h14.6v42.7c0,6.5,3,14.2,11.5,14.2c9.1,0,11.6-7.5,11.6-14.2
					V522h14.5v42.8C1645.5,581.2,1635.9,591.5,1619.4,591.5z"/>
				<path class="st1" d="M1654.3,590.4v-8.2l28.9-47h-27.3V522h47.3v8.3l-28.7,46.9h30.1v13.3H1654.3z"/>
			</g>
		</g>
	</g>
	<g>
		<rect x="575.4" y="651" class="st2" width="792.7" height="105.9"/>
		<g>
			<path class="st3" d="M643.8,734.8c-18.3,0-29.1-13.7-29.1-30.7c0-17.4,11.1-31,29.1-31c17.9,0,29.8,13.6,29.8,30.5
				C673.5,720,661.9,734.8,643.8,734.8z M663,703.7c0-11.1-6.9-20.9-19.1-20.9c-12.1,0-18.9,9.5-18.9,21c0,10.9,6.5,21.5,18.8,21.5
				C655.8,725.3,663,714.9,663,703.7z"/>
			<path class="st3" d="M706.5,733.8h-19.6V674h17.4c11.5,0,18.2,5.3,18.2,14.9c0,5.8-2,9.7-7.1,12.8c6.7,2.5,10.2,7.8,10.2,14.5
				C725.6,725.4,718,733.8,706.5,733.8z M702.7,698.6c5.9,0,9.9-2.9,9.9-8.3c0-6-3.9-7.8-9.9-7.8h-5.5v16H702.7z M704.6,725.3
				c7.8,0,10.9-2.9,10.9-9.1c0-4.6-2-9.1-10.9-9.1h-7.4v18.2H704.6z"/>
			<path class="st3" d="M771.6,683.3h-22.4v14.3h18v9.3h-18v17.6h22.5v9.3h-32.8V674h32.7V683.3z"/>
			<path class="st3" d="M813.7,733.8L800,708.1h-3.8v25.7h-10.2V674h18.8c10.1,0,18.1,6.8,18.1,16.7c0,8.1-4.5,14.3-12.2,16.5
				l14.6,26.6H813.7z M803.5,682.6h-7.4v17.7h5.3c8.6,0,11.1-5.3,11.1-9.1C812.6,685,808.4,682.6,803.5,682.6z"/>
			<path class="st3" d="M921.7,734.7c-12.7,0-18.9-9.1-21.1-16l8.6-3.3c2.8,7.3,7,10.9,13,10.9c5.5,0,9.4-3.6,9.4-8.7
				c0-4.8-3.1-7.8-12-11.7c-9.8-4.3-14.8-9-14.8-17c0-9.2,7.4-15.9,17.6-15.9c7.6,0,12.8,2.6,17.7,9.7l-7.4,5.3
				c-2.8-4.6-5.7-6.8-10.2-6.8c-4.6,0-7.6,2.6-7.6,6.6c0,10.9,27,9,27,28.3C942.1,727,933.6,734.7,921.7,734.7z"/>
			<path class="st3" d="M974.4,683.3v50.5h-10.2v-50.5h-13.8V674h37.7v9.3H974.4z"/>
			<path class="st3" d="M1033.1,683.3h-22.4v14.3h18v9.3h-18v17.6h22.5v9.3h-32.8V674h32.7V683.3z"/>
			<path class="st3" d="M1075.1,733.8l-13.7-25.7h-3.8v25.7h-10.3V674h18.8c10.1,0,18.1,6.8,18.1,16.7c0,8.1-4.5,14.3-12.2,16.5
				l14.6,26.6H1075.1z M1065,682.6h-7.4v17.7h5.3c8.6,0,11.1-5.3,11.1-9.1C1074.1,685,1069.9,682.6,1065,682.6z"/>
			<path class="st3" d="M1126.9,733.8l-13.7-25.7h-3.8v25.7h-10.2V674h18.8c10.1,0,18.1,6.8,18.1,16.7c0,8.1-4.5,14.3-12.2,16.5
				l14.6,26.6H1126.9z M1116.8,682.6h-7.4v17.7h5.3c8.6,0,11.1-5.3,11.1-9.1C1125.9,685,1121.7,682.6,1116.8,682.6z"/>
			<path class="st3" d="M1183.6,683.3h-22.5v14.3h18v9.3h-18v17.6h22.5v9.3h-32.8V674h32.7V683.3z"/>
			<path class="st3" d="M1197.8,733.8V674h10.3v59.8H1197.8z"/>
			<path class="st3" d="M1249.7,734.8c-17.3,0-28.1-12.8-28.1-30.8c0-19.7,11.8-30.9,28.5-30.9c8.2,0,13.5,2.6,16.2,4v11.6
				c-1.2-1.1-7.2-6.2-15.9-6.2c-11.8,0-18.3,9-18.3,21.6c0,12.5,6.7,21.5,18.7,21.5c6.7,0,13-3.4,16-6.2v11
				C1263,732.5,1256.7,734.8,1249.7,734.8z"/>
			<path class="st3" d="M1315.2,733.8v-26.6h-24.5v26.6h-10.3V674h10.3v23.9h24.5V674h10.3v59.8H1315.2z"/>
			<path class="st3" d="M862.7,734.9c-18.3,0-29.1-13.7-29.1-30.7c0-17.4,11.1-31,29.1-31c17.9,0,29.8,13.6,29.8,30.5
				C892.4,720.1,880.8,734.9,862.7,734.9z M881.9,703.8c0-11.1-6.9-20.9-19.1-20.9c-12.1,0-18.9,9.5-18.9,21
				c0,10.9,6.5,21.5,18.8,21.5C874.7,725.3,881.9,715,881.9,703.8z M839.1,666.7c3.1,0,5.6,2.5,5.6,5.6s-2.5,5.6-5.6,5.6
				c-3.1,0-5.6-2.5-5.6-5.6S836,666.7,839.1,666.7z M886.9,666.7c3.1,0,5.6,2.5,5.6,5.6s-2.5,5.6-5.6,5.6c-3.1,0-5.6-2.5-5.6-5.6
				S883.8,666.7,886.9,666.7z"/>
		</g>
	</g>
</g>
</svg>
