<svg id="svg10121" xmlns="http://www.w3.org/2000/svg" xmlns:xlink="http://www.w3.org/1999/xlink" viewBox="0 0 1946.92 967.62"><defs><style>.cls-1,.cls-7{fill:none;}.cls-2{clip-path:url(#clip-path);}.cls-3{clip-path:url(#clip-path-2);}.cls-4{clip-path:url(#clip-path-3);}.cls-5{fill:#ed1c24;}.cls-6{fill:#231f20;}.cls-7{stroke:#231f20;stroke-miterlimit:80.85;stroke-width:16.06px;}</style><clipPath id="clip-path"><polyline class="cls-1" points="-757.7 41.56 -757.7 926.06 2704.61 926.06 2704.61 41.56 -757.7 41.56"/></clipPath><clipPath id="clip-path-2"><polyline class="cls-1" points="138.36 178.53 1795.71 178.53 1795.71 647.44 138.36 647.44 138.36 178.53"/></clipPath><clipPath id="clip-path-3"><rect class="cls-1" x="138.36" y="178.53" width="1657.35" height="468.91"/></clipPath></defs><g class="cls-2"><g id="g2722"><g id="g2728"><g class="cls-3"><g id="g2730"><g id="g2736"><g class="cls-4"><g id="g2738"><g id="g2744"><g id="g2746"><path id="path2748" class="cls-5" d="M924.7,205.8h82.52V453.43H924.7Z"/></g><g id="g2750"><path id="path2752" class="cls-5" d="M842.15,288.35v82.52h247.62V288.35Z"/></g><g id="g2754"><path id="path2756" class="cls-6" d="M172.25,536.33a7.25,7.25,0,1,1-7.19,7.29A7.23,7.23,0,0,1,172.25,536.33Zm29.62,83.1c-23.36,0-36.81-17.51-36.81-37.95,0-20.75,14.28-38.17,36.81-38.17,23.14,0,37.44,17.73,37.44,37.55C239.31,599.62,224.7,619.43,201.87,619.43Zm0-60.79c-13.05,0-20.54,10.85-20.54,22.42,0,10.74,7.08,23.36,20.54,23.36,12.51,0,20.95-12.51,20.95-23.36C222.82,570.53,214.79,558.64,201.87,558.64Zm30.24-22.31a7.25,7.25,0,1,1-7.2,7.29A7.23,7.23,0,0,1,232.11,536.33Z"/></g><g id="g2758"><path id="path2760" class="cls-6" d="M268.6,619.86c-9.48,0-16.89-4.07-23.57-10.53l10.43-11.48c3.76,4.28,7.83,8.34,13.88,8.34,5,0,9.27-3.54,9.27-8.76a7.94,7.94,0,0,0-2.92-6.25,26.34,26.34,0,0,0-6.67-3.86c-10-4.79-19.92-10.84-19.92-23.36,0-13.25,11.16-21.38,23.68-21.38,9.39,0,14.91,3.45,21.17,9.91L283.73,564c-2.83-3.76-6-7-11-7-3.76,0-7,2.6-7,6.46,0,11.46,29.61,9.29,29.61,32.22C295.4,611.1,283.21,619.86,268.6,619.86Z"/></g><g id="g2762"><path id="path2764" class="cls-6" d="M333,558.75v59.44H317V559H301.24V544.57h47.45v14.18Z"/></g><g id="g2766"><path id="path2768" class="cls-6" d="M372.25,558.85v14.61h20.34v14.28H372.25v15.74H398v14.71H356.3V544.57h41.81v14.28Z"/></g><g id="g2770"><path id="path2772" class="cls-6" d="M446,618.19,431.69,588h-5.22v30.24H410.93V544.57h20.66c9.49,0,19.6.72,25.23,9.48a23.34,23.34,0,0,1,3.45,12.31c0,6.78-2.62,13.87-8.45,17.63a19.35,19.35,0,0,1-5.85,2.92l17.11,31.28Zm-14-60.8h-5.4v19.39h5.73c4.39,0,8.45-.41,10.94-4.58a10.22,10.22,0,0,0,1.36-5.21C444.62,559.47,438.47,557.39,432,557.39Z"/></g><g id="g2774"><path id="path2776" class="cls-6" d="M508.86,618.19,494.57,588h-5.21v30.24H473.82V544.57h20.65c9.49,0,19.6.72,25.23,9.48a23.42,23.42,0,0,1,3.44,12.31c0,6.78-2.61,13.87-8.45,17.63a19.26,19.26,0,0,1-5.83,2.92L526,618.19Zm-14-60.8h-5.43v19.39h5.73c4.39,0,8.45-.41,11-4.58A10.31,10.31,0,0,0,507.5,567C507.5,559.47,501.35,557.39,494.89,557.39Z"/></g><g id="g2778"><path id="path2780" class="cls-6" d="M552.65,558.85v14.61H573v14.28H552.65v15.74h25.76v14.71H536.69V544.57h41.82v14.28Z"/></g><g id="g2782"><path id="path2784" class="cls-7" d="M599.37,618.19V544.57"/></g><g id="g2786"><path id="path2788" class="cls-6" d="M667.87,617.46a45,45,0,0,1-13.76,2.29c-21.37,0-36-15.54-36-38.16,0-26.6,17.52-38.69,37.23-38.69a46.29,46.29,0,0,1,11.36,1.35c3.44.84,4.49,1.57,8.23,3.55v17.72c-1.56-1.35-2.7-2.29-3.54-2.91a27.62,27.62,0,0,0-15.53-5.22c-13.14,0-21.58,10.12-21.58,24.3s8.13,23.56,21.78,23.56c7,0,12.94-2.49,18.87-7.4v16.28A30.78,30.78,0,0,1,667.87,617.46Z"/></g><g id="g2790"><path id="path2792" class="cls-6" d="M729.09,618.19V587.84H701.76v30.35h-16V544.57h16v29h27.33v-29h16.06v73.62Z"/></g><g id="g2794"><path id="path2796" class="cls-7" d="M766,618.19V544.57"/></g><g id="g2798"><path id="path2800" class="cls-6" d="M805.42,619.86c-9.49,0-16.89-4.07-23.57-10.53l10.43-11.48c3.75,4.28,7.82,8.34,13.87,8.34,5,0,9.28-3.54,9.28-8.76a7.94,7.94,0,0,0-2.92-6.25,26.51,26.51,0,0,0-6.67-3.86c-10-4.79-19.92-10.84-19.92-23.36,0-13.25,11.16-21.38,23.67-21.38,9.38,0,14.9,3.45,21.17,9.91L820.53,564c-2.8-3.76-5.93-7-10.94-7-3.75,0-7,2.6-7,6.46,0,11.46,29.61,9.29,29.61,32.22C832.21,611.1,820,619.86,805.42,619.86Z"/></g><g id="g2802"><path id="path2804" class="cls-6" d="M890.93,617.46a45.11,45.11,0,0,1-13.77,2.29c-21.38,0-36-15.54-36-38.16,0-26.6,17.52-38.69,37.22-38.69a46.14,46.14,0,0,1,11.37,1.35c3.45.84,4.49,1.57,8.25,3.55v17.72c-1.56-1.35-2.72-2.29-3.55-2.91a27.67,27.67,0,0,0-15.53-5.22c-13.15,0-21.6,10.12-21.6,24.3s8.14,23.56,21.8,23.56c7,0,12.94-2.49,18.88-7.4v16.28A31.56,31.56,0,0,1,890.93,617.46Z"/></g><g id="g2806"><path id="path2808" class="cls-6" d="M952.14,618.19V587.84H924.81v30.35h-16V544.57h16v29h27.33v-29h16v73.62Z"/></g><g id="g2810"><path id="path2812" class="cls-6" d="M997,558.85v14.61h20.33v14.28H997v15.74h25.76v14.71H981V544.57h41.81v14.28Z"/></g><g id="g2814"><path id="path2816" class="cls-6" d="M1054.22,619.86c-9.49,0-16.89-4.07-23.56-10.53l10.43-11.48c3.76,4.28,7.81,8.34,13.86,8.34,5,0,9.27-3.54,9.27-8.76a7.93,7.93,0,0,0-2.91-6.25,26.34,26.34,0,0,0-6.67-3.86c-10-4.79-19.92-10.84-19.92-23.36,0-13.25,11.15-21.38,23.68-21.38,9.37,0,14.9,3.45,21.16,9.91L1069.34,564c-2.82-3.76-5.94-7-10.94-7-3.76,0-7,2.6-7,6.46,0,11.46,29.62,9.29,29.62,32.22C1081,611.1,1068.83,619.86,1054.22,619.86Z"/></g><g id="g2818"><path id="path2820" class="cls-6" d="M1159.76,618.19,1145.46,588h-5.22v30.24h-15.53V544.57h20.64c9.5,0,19.61.72,25.25,9.48a23.52,23.52,0,0,1,3.44,12.31c0,6.78-2.61,13.87-8.45,17.63a19.38,19.38,0,0,1-5.83,2.92l17.08,31.28Zm-14-60.8h-5.44v19.39h5.74c4.37,0,8.45-.41,11-4.58a10.22,10.22,0,0,0,1.36-5.21C1158.4,559.47,1152.23,557.39,1145.79,557.39Z"/></g><g id="g2822"><path id="path2824" class="cls-6" d="M1222.53,619.43c-23.36,0-37-17.51-37-37.95,0-20.76,13.76-38.16,36.29-38.16s38,17.72,38,37.54C1259.75,599.63,1245.36,619.43,1222.53,619.43Zm-.22-60.79c-13,0-20.53,10.85-20.53,22.42,0,10.74,7.49,23.36,21,23.36,12.51,0,20.55-12.51,20.55-23.36C1243.28,570.53,1235.24,558.64,1222.31,558.64Z"/></g><g id="g2826"><path id="path2828" class="cls-6" d="M1297,558.75v59.44h-16V559h-15.75V544.57h47.45v14.18Z"/></g><g id="g2830"><path id="path2832" class="cls-6" d="M1336.29,558.85v14.61h20.34v14.28h-20.34v15.74H1362v14.71h-41.71V544.57h41.82v14.28Z"/></g><g id="g2834"><path id="path2836" class="cls-6" d="M1393.53,619.86c-9.49,0-16.89-4.07-23.56-10.53l10.43-11.48c3.76,4.28,7.82,8.34,13.86,8.34,5,0,9.28-3.54,9.28-8.76a7.94,7.94,0,0,0-2.92-6.25,26.34,26.34,0,0,0-6.67-3.86C1384,582.53,1374,576.48,1374,564c0-13.25,11.17-21.38,23.68-21.38,9.38,0,14.9,3.45,21.16,9.91L1408.65,564c-2.81-3.76-5.93-7-10.94-7-3.76,0-7,2.6-7,6.46,0,11.46,29.61,9.29,29.61,32.22C1420.33,611.1,1408.14,619.86,1393.53,619.86Z"/></g><g id="g2838"><path id="path2840" class="cls-6" d="M1503.13,618.19l-16.58-24.72-6.36,9.29v15.43H1464V544.57h16.17v32.12l22.63-32.12h18.24l-24.4,34.3,26.39,39.32Z"/></g><g id="g2842"><path id="path2844" class="cls-6" d="M1565.17,618.19,1550.89,588h-5.22v30.24h-15.53V544.57h20.64c9.49,0,19.62.72,25.24,9.48a23.43,23.43,0,0,1,3.45,12.31c0,6.78-2.61,13.87-8.45,17.63a19.24,19.24,0,0,1-5.85,2.92l17.1,31.28Zm-14-60.8h-5.42v19.39h5.73c4.39,0,8.45-.41,11-4.58a10.3,10.3,0,0,0,1.34-5.21C1563.81,559.47,1557.66,557.39,1551.2,557.39Z"/></g><g id="g2846"><path id="path2848" class="cls-6" d="M1609,558.85v14.61h20.32v14.28H1609v15.74h25.75v14.71H1593V544.57h41.81v14.28Z"/></g><g id="g2850"><path id="path2852" class="cls-6" d="M1698.64,608.81c-5.62,8.13-13.44,10.62-23,10.62-11.36,0-21.69-4.27-26-15.43-1.65-4.27-2-8.86-2-13.45v-46h15.66v46c0,7,3.34,15.22,12.41,15.22,9.8,0,12.51-8.13,12.51-15.22v-46h15.64v41C1703.86,593.58,1703.45,601.92,1698.64,608.81Z"/></g><g id="g2854"><path id="path2856" class="cls-6" d="M1770,558.64,1739.2,603.9H1770v14.28h-58.5L1752,558.84h-36.81V544.57H1770Z"/></g></g></g></g></g></g></g></g></g></g></svg>